<?xml version="1.0" encoding="iso-8859-1"?>
<!-- Generator: Adobe Illustrator 21.1.0, SVG Export Plug-In . SVG Version: 6.00 Build 0)  -->
<svg version="1.1" id="Layer_1" xmlns="http://www.w3.org/2000/svg" xmlns:xlink="http://www.w3.org/1999/xlink" x="0px" y="0px"
	 viewBox="0 0 215.333 80" style="enable-background:new 0 0 215.333 80;" xml:space="preserve">
<g>
	<path style="fill:#BB3C4E;" d="M210.081,17.951h-0.842v1.617h0.842c0.475,0,0.81-0.061,1.002-0.178
		c0.19-0.121,0.287-0.322,0.287-0.607c0-0.295-0.103-0.508-0.305-0.638C210.864,18.017,210.534,17.951,210.081,17.951
		L210.081,17.951z M210.208,17.493c0.631,0,1.102,0.102,1.405,0.304c0.304,0.202,0.455,0.515,0.455,0.939
		c0,0.317-0.097,0.581-0.287,0.794c-0.193,0.215-0.45,0.344-0.774,0.39l1.004,2.076h-0.774l-0.948-1.979h-1.051v1.979h-0.677v-4.504
		H210.208L210.208,17.493z M213.575,19.824c0-0.475-0.085-0.926-0.257-1.348c-0.17-0.422-0.415-0.796-0.736-1.118
		c-0.333-0.331-0.713-0.584-1.14-0.759c-0.424-0.178-0.875-0.265-1.351-0.265c-0.463,0-0.902,0.085-1.317,0.256
		c-0.412,0.171-0.785,0.42-1.112,0.747c-0.338,0.344-0.596,0.729-0.776,1.152c-0.18,0.425-0.27,0.868-0.27,1.324
		c0,0.459,0.087,0.898,0.265,1.316c0.176,0.419,0.429,0.795,0.762,1.129c0.332,0.332,0.709,0.584,1.13,0.759
		c0.42,0.178,0.86,0.265,1.318,0.265c0.463,0,0.907-0.09,1.336-0.267c0.427-0.178,0.813-0.432,1.154-0.768
		c0.324-0.315,0.57-0.679,0.74-1.088C213.492,20.748,213.575,20.304,213.575,19.824L213.575,19.824z M210.092,15.898
		c0.539,0,1.046,0.098,1.522,0.293c0.475,0.196,0.895,0.481,1.264,0.854c0.361,0.362,0.639,0.781,0.832,1.256
		c0.196,0.476,0.291,0.976,0.291,1.507c0,0.533-0.093,1.034-0.286,1.5c-0.189,0.466-0.469,0.879-0.837,1.241
		c-0.382,0.378-0.813,0.666-1.293,0.867c-0.48,0.202-0.977,0.302-1.493,0.302c-0.524,0-1.02-0.098-1.492-0.295
		c-0.471-0.197-0.892-0.485-1.262-0.861c-0.372-0.369-0.656-0.79-0.854-1.264c-0.195-0.474-0.292-0.969-0.292-1.489
		c0-0.512,0.1-1.009,0.302-1.491c0.201-0.481,0.49-0.913,0.868-1.295c0.357-0.365,0.771-0.643,1.236-0.837
		C209.064,15.994,209.562,15.898,210.092,15.898L210.092,15.898z"/>
	<path style="fill-rule:evenodd;clip-rule:evenodd;fill:#BB3C4E;" d="M111.461,31.911c0-5.553-3.025-8.741-8.081-8.741
		c-4.068,0-6.597,1.98-10.007,4.179l-0.77-4.179l-8.19,1.375v1.375l2.089,0.274c1.434,0.188,1.758,0.495,1.758,2.473v17.318
		c0,2.804-0.163,2.914-4.122,3.189v1.593h13.414v-1.593c-3.903-0.275-4.122-0.385-4.122-3.189V33.12c0-1.374,0.09-2.154,0.55-3.024
		c1.136-2.154,3.626-3.958,6.542-3.958c3.739,0,5.773,2.09,5.773,6.872v12.975c0,2.804-0.167,2.914-4.122,3.189v1.593h13.412v-1.593
		c-3.901-0.275-4.122-0.385-4.122-3.189V31.911L111.461,31.911z"/>
	<path style="fill-rule:evenodd;clip-rule:evenodd;fill:#BB3C4E;" d="M170.188,23.169l-8.356,1.375v1.375l2.091,0.274
		c1.43,0.22,1.758,0.495,1.758,2.473v17.318c0,2.796-0.274,2.912-4.089,3.186c-3.759-0.274-4.087-0.391-4.087-3.186V23.5
		l-0.386-0.33l-8.631,1.375v1.375l2.091,0.274c1.43,0.22,1.758,0.495,1.758,2.473v12.369c0,1.539-0.164,2.75-0.439,3.298
		c-1.264,2.531-3.903,4.125-6.761,4.125c-3.19,0-5.554-1.978-5.554-6.269V23.5l-0.386-0.33l-4.139,0.66h-11.079v-6.928h-1.596
		l-3.353,6.928h-4.176v2.198h3.957v19.133c0,5.606,4.179,6.275,6.103,6.275c2.804,0,5.441-1.438,7.036-2.428l-0.44-1.154
		c-1.32,0.549-2.527,0.713-3.903,0.713c-1.87,0-3.627-1.318-3.627-5.496V26.027h7.091l0.102-0.029l1.485,0.195
		c1.428,0.22,1.758,0.495,1.758,2.473v14.513c0,6.323,3.738,8.258,7.806,8.258c4.674,0,8.467-3.198,10.062-3.97l0.55,3.299h8.726
		h0.068h14.442v-1.593c-4.89-0.275-5.219-0.385-5.219-3.189V33.12c0-4.234,1.868-5.663,3.132-5.663c0.881,0,1.813,0.331,3.408,1.21
		c0.386,0.22,0.826,0.275,1.1,0.275c1.319,0,2.528-1.374,2.528-3.078c0-1.21-0.769-2.694-2.912-2.694
		c-1.979,0-3.628,1.21-7.256,4.398L170.188,23.169L170.188,23.169z"/>
	<path style="fill-rule:evenodd;clip-rule:evenodd;fill:#BB3C4E;" d="M1.886,1.295v2.876c5.567,0.198,6.746,0.597,8.74,5.849
		c3.163,8.331,6.814,18.253,10.312,28.157l11.201,31.725h7.041l12.69-34.203C55.95,24.7,59.913,14.585,62.28,9.325
		c2.094-4.652,3.273-4.857,8.625-5.154V1.295H48.994v2.876l5.452,0.495c2.577,0.234,2.661,1.185,2.181,3.074
		c-1.106,4.358-4.143,13.095-7.731,23.001L38.585,59.195l-0.2-0.198l-9.22-25.48c-3.114-8.61-6.155-17.347-8.725-25.281
		c-0.802-2.474-0.494-3.34,1.884-3.569l5.157-0.495V1.295H1.886L1.886,1.295z"/>
	<path style="fill:#747476;" d="M67.471,72.286c-0.498,0-0.932-0.069-1.298-0.202c-0.366-0.134-0.692-0.326-0.973-0.573
		c0.086-0.416,0.193-0.88,0.322-1.393c0.129-0.512,0.284-1.036,0.456-1.583c0.172-0.546,0.366-1.079,0.577-1.599
		c0.211-0.52,0.439-0.998,0.683-1.437c0.314-0.546,0.658-1.07,1.033-1.573c0.377-0.507,0.771-0.955,1.178-1.355
		c0.409-0.399,0.812-0.713,1.218-0.946c0.408-0.233,0.796-0.352,1.165-0.357c0.464,0.004,0.813,0.189,1.044,0.56
		c0.233,0.366,0.348,0.894,0.348,1.582c0,0.297-0.031,0.674-0.095,1.136c-0.065,0.455-0.165,0.963-0.304,1.514
		c-0.137,0.555-0.313,1.122-0.533,1.699c-0.215,0.58-0.478,1.14-0.779,1.677c-0.306,0.537-0.652,1.019-1.049,1.449
		c-0.396,0.425-0.843,0.765-1.343,1.02C68.629,72.153,68.078,72.282,67.471,72.286L67.471,72.286z M63.523,78.815l1.42-6.193
		c0.27,0.171,0.637,0.304,1.092,0.408c0.46,0.103,1.028,0.155,1.695,0.159c0.903-0.009,1.716-0.154,2.439-0.439
		c0.721-0.287,1.362-0.674,1.922-1.16c0.559-0.492,1.051-1.038,1.464-1.644c0.411-0.607,0.763-1.234,1.049-1.879
		c0.287-0.65,0.515-1.278,0.687-1.884c0.172-0.606,0.296-1.152,0.374-1.638c0.081-0.487,0.116-0.874,0.116-1.162
		c0-1.127-0.237-1.983-0.713-2.573c-0.477-0.584-1.195-0.88-2.152-0.885c-0.67,0-1.38,0.211-2.133,0.623
		c-0.752,0.417-1.505,1.036-2.252,1.866c-0.75,0.826-1.455,1.855-2.116,3.083h-0.078l1.47-5.443l-0.129-0.129l-4.67,0.722
		l-0.154,0.62l1.6,0.129c0.201,0.016,0.343,0.074,0.417,0.172c0.073,0.099,0.102,0.236,0.086,0.412
		c-0.013,0.177-0.052,0.397-0.117,0.655l-3.612,16.489L63.523,78.815L63.523,78.815z"/>
	<path style="fill:#747476;" d="M81.648,72.88c0.146-0.568,0.297-1.158,0.452-1.777c0.155-0.619,0.306-1.229,0.455-1.832
		c0.153-0.597,0.297-1.152,0.435-1.655c0.314-1.137,0.654-2.121,1.024-2.955c0.37-0.834,0.744-1.484,1.118-1.943
		c0.375-0.461,0.727-0.696,1.057-0.701c0.198,0.005,0.366,0.034,0.504,0.099c0.139,0.065,0.271,0.137,0.392,0.224
		c0.119,0.081,0.248,0.159,0.395,0.219c0.142,0.065,0.314,0.1,0.517,0.103c0.217-0.008,0.416-0.091,0.602-0.249
		c0.179-0.16,0.326-0.362,0.437-0.602c0.112-0.245,0.168-0.495,0.172-0.749c0.013-0.352-0.073-0.628-0.263-0.83
		c-0.189-0.198-0.486-0.301-0.898-0.305c-0.487,0.004-0.997,0.176-1.531,0.524c-0.533,0.348-1.062,0.848-1.591,1.506
		c-0.527,0.657-1.028,1.449-1.496,2.382h-0.051l1.162-4.283l-0.129-0.129l-4.44,0.722l-0.154,0.62l1.6,0.129
		c0.201,0.016,0.343,0.069,0.417,0.158c0.074,0.091,0.102,0.225,0.086,0.405c-0.013,0.176-0.052,0.401-0.117,0.676l-2.374,10.553
		L81.648,72.88L81.648,72.88z"/>
	<path style="fill:#747476;" d="M98.456,60.829c0.521,0.004,0.942,0.12,1.256,0.348c0.314,0.224,0.543,0.542,0.68,0.947
		c0.142,0.404,0.212,0.877,0.207,1.414c0,0.269-0.026,0.62-0.086,1.063c-0.056,0.439-0.142,0.929-0.263,1.471
		c-0.119,0.546-0.27,1.106-0.455,1.677c-0.189,0.577-0.409,1.135-0.666,1.673c-0.262,0.537-0.559,1.019-0.894,1.45
		c-0.336,0.431-0.709,0.774-1.126,1.027c-0.419,0.255-0.882,0.384-1.385,0.388c-0.753,0-1.326-0.228-1.725-0.68
		c-0.396-0.456-0.594-1.14-0.597-2.056c0-0.473,0.047-1.01,0.137-1.612c0.095-0.608,0.233-1.234,0.418-1.889
		c0.186-0.653,0.418-1.285,0.696-1.904c0.282-0.619,0.607-1.174,0.982-1.673c0.374-0.499,0.799-0.894,1.269-1.192
		C97.368,60.988,97.889,60.833,98.456,60.829L98.456,60.829z M98.482,59.926c-0.873,0.004-1.656,0.125-2.344,0.361
		c-0.692,0.232-1.303,0.551-1.836,0.955c-0.53,0.401-0.986,0.856-1.372,1.368c-0.386,0.508-0.715,1.041-0.972,1.596
		c-0.262,0.555-0.474,1.101-0.627,1.638c-0.156,0.538-0.269,1.042-0.337,1.502c-0.069,0.46-0.1,0.85-0.1,1.174
		c0,0.929,0.168,1.737,0.508,2.439c0.339,0.695,0.864,1.242,1.566,1.635c0.7,0.39,1.59,0.588,2.674,0.597
		c0.932-0.004,1.767-0.151,2.494-0.43c0.727-0.284,1.364-0.675,1.914-1.169c0.546-0.495,1.024-1.063,1.423-1.705
		c0.396-0.628,0.709-1.268,0.951-1.925c0.236-0.659,0.407-1.295,0.515-1.901c0.108-0.607,0.16-1.145,0.16-1.617
		c-0.005-0.71-0.101-1.324-0.28-1.836c-0.181-0.516-0.429-0.947-0.744-1.291c-0.314-0.348-0.672-0.624-1.067-0.825
		c-0.395-0.203-0.814-0.349-1.247-0.435C99.333,59.964,98.904,59.921,98.482,59.926L98.482,59.926z"/>
	<path style="fill:#747476;" d="M112.063,72.286c-0.498,0-0.932-0.069-1.298-0.202c-0.366-0.134-0.692-0.326-0.972-0.573
		c0.085-0.416,0.192-0.88,0.322-1.393c0.129-0.512,0.284-1.036,0.456-1.583c0.172-0.546,0.366-1.079,0.577-1.599
		c0.211-0.52,0.439-0.998,0.683-1.437c0.314-0.546,0.658-1.07,1.033-1.573c0.377-0.507,0.77-0.955,1.178-1.355
		c0.409-0.399,0.812-0.713,1.218-0.946c0.408-0.233,0.796-0.352,1.166-0.357c0.463,0.004,0.812,0.189,1.044,0.56
		c0.233,0.366,0.348,0.894,0.348,1.582c0,0.297-0.031,0.674-0.095,1.136c-0.065,0.455-0.166,0.963-0.304,1.514
		c-0.138,0.555-0.314,1.122-0.534,1.699c-0.215,0.58-0.478,1.14-0.779,1.677c-0.305,0.537-0.652,1.019-1.049,1.449
		c-0.395,0.425-0.843,0.765-1.343,1.02C113.22,72.153,112.67,72.282,112.063,72.286L112.063,72.286z M108.115,78.815l1.42-6.193
		c0.27,0.171,0.637,0.304,1.093,0.408c0.459,0.103,1.027,0.155,1.694,0.159c0.903-0.009,1.716-0.154,2.439-0.439
		c0.721-0.287,1.363-0.674,1.922-1.16c0.559-0.492,1.051-1.038,1.464-1.644c0.411-0.607,0.763-1.234,1.048-1.879
		c0.288-0.65,0.515-1.278,0.688-1.884c0.172-0.606,0.296-1.152,0.374-1.638c0.081-0.487,0.116-0.874,0.116-1.162
		c0-1.127-0.237-1.983-0.712-2.573c-0.478-0.584-1.197-0.88-2.153-0.885c-0.67,0-1.38,0.211-2.133,0.623
		c-0.752,0.417-1.505,1.036-2.252,1.866c-0.749,0.826-1.455,1.855-2.117,3.083h-0.076l1.469-5.443l-0.129-0.129l-4.67,0.722
		l-0.154,0.62l1.599,0.129c0.202,0.016,0.344,0.074,0.418,0.172c0.073,0.099,0.102,0.236,0.086,0.412
		c-0.013,0.177-0.052,0.397-0.117,0.655l-3.612,16.489L108.115,78.815L108.115,78.815z"/>
	<path style="fill:#747476;" d="M132.562,68.983c-0.232,0.309-0.494,0.631-0.782,0.972c-0.292,0.339-0.615,0.659-0.969,0.955
		c-0.352,0.298-0.739,0.537-1.155,0.727c-0.419,0.185-0.87,0.283-1.352,0.287c-0.597-0.004-1.066-0.163-1.411-0.478
		c-0.343-0.308-0.589-0.735-0.731-1.272c-0.142-0.538-0.21-1.149-0.207-1.837c0-0.063,0-0.124,0.004-0.189
		c0-0.06,0.008-0.138,0.021-0.225c1.08-0.219,2.019-0.446,2.818-0.683c0.799-0.237,1.484-0.482,2.056-0.731
		c0.572-0.245,1.057-0.499,1.454-0.757c0.395-0.255,0.731-0.512,1.001-0.771c0.296-0.3,0.525-0.598,0.684-0.881
		c0.154-0.289,0.261-0.568,0.319-0.834c0.059-0.267,0.084-0.52,0.081-0.761c0-0.465-0.12-0.89-0.361-1.278
		c-0.237-0.388-0.595-0.702-1.067-0.938c-0.478-0.235-1.067-0.36-1.773-0.365c-0.773,0.004-1.5,0.129-2.179,0.374
		c-0.682,0.241-1.313,0.585-1.894,1.023c-0.576,0.44-1.104,0.955-1.578,1.544c-0.456,0.565-0.842,1.178-1.161,1.841
		c-0.318,0.667-0.563,1.36-0.727,2.082c-0.167,0.718-0.253,1.44-0.253,2.167c0.004,0.718,0.09,1.329,0.257,1.828
		c0.164,0.499,0.388,0.908,0.667,1.222c0.276,0.318,0.585,0.563,0.921,0.735c0.336,0.168,0.681,0.288,1.024,0.353
		c0.348,0.065,0.67,0.099,0.977,0.095c0.472,0.004,0.963-0.056,1.47-0.172c0.507-0.12,1.018-0.318,1.53-0.597
		c0.516-0.279,1.021-0.659,1.51-1.136c0.49-0.477,0.961-1.071,1.398-1.784L132.562,68.983L132.562,68.983z M126.033,67.048
		c0.092-0.628,0.233-1.243,0.431-1.845c0.201-0.603,0.442-1.166,0.726-1.696c0.286-0.524,0.603-0.988,0.956-1.389
		c0.348-0.404,0.722-0.718,1.113-0.942c0.398-0.228,0.801-0.344,1.215-0.348c0.454,0.004,0.821,0.146,1.087,0.421
		c0.267,0.275,0.404,0.642,0.409,1.101c0.004,0.456-0.099,0.907-0.314,1.363c-0.209,0.457-0.551,0.894-1.019,1.313
		c-0.463,0.421-1.075,0.804-1.836,1.148C128.041,66.523,127.121,66.811,126.033,67.048L126.033,67.048z"/>
	<path style="fill:#747476;" d="M139.693,72.88c0.146-0.568,0.297-1.158,0.452-1.777c0.155-0.619,0.306-1.229,0.455-1.832
		c0.153-0.597,0.297-1.152,0.435-1.655c0.314-1.137,0.654-2.121,1.025-2.955c0.369-0.834,0.743-1.484,1.117-1.943
		c0.374-0.461,0.728-0.696,1.058-0.701c0.198,0.005,0.366,0.034,0.503,0.099c0.139,0.065,0.271,0.137,0.392,0.224
		c0.12,0.081,0.248,0.159,0.395,0.219c0.142,0.065,0.314,0.1,0.517,0.103c0.218-0.008,0.416-0.091,0.602-0.249
		c0.18-0.16,0.326-0.362,0.438-0.602c0.111-0.245,0.167-0.495,0.172-0.749c0.013-0.352-0.073-0.628-0.262-0.83
		c-0.189-0.198-0.487-0.301-0.899-0.305c-0.485,0.004-0.997,0.176-1.531,0.524c-0.533,0.348-1.062,0.848-1.591,1.506
		c-0.527,0.657-1.027,1.449-1.496,2.382h-0.051l1.162-4.283l-0.129-0.129l-4.44,0.722l-0.154,0.62l1.6,0.129
		c0.202,0.016,0.343,0.069,0.417,0.158c0.074,0.091,0.104,0.225,0.086,0.405c-0.013,0.176-0.052,0.401-0.117,0.676l-2.374,10.553
		L139.693,72.88L139.693,72.88z"/>
	<path style="fill:#747476;" d="M158.178,61.216l0.283-0.98h-3.277l0.879-3.071l-0.312-0.181l-2.503,1.987l-0.334,1.265h-2.091
		l-0.284,0.98h2.142l-2.323,9.444c-0.128,0.495-0.18,0.93-0.14,1.308c0.032,0.379,0.157,0.675,0.382,0.894
		c0.22,0.216,0.542,0.323,0.971,0.327c0.517-0.004,1.008-0.104,1.467-0.298c0.464-0.192,0.894-0.459,1.295-0.795
		c0.399-0.339,0.765-0.727,1.101-1.162c0.33-0.433,0.629-0.899,0.886-1.384l-0.568-0.438c-0.151,0.258-0.339,0.542-0.563,0.852
		c-0.219,0.308-0.46,0.606-0.715,0.894c-0.253,0.282-0.507,0.52-0.757,0.705c-0.243,0.181-0.472,0.279-0.674,0.283
		c-0.176-0.004-0.305-0.065-0.374-0.176c-0.073-0.117-0.107-0.267-0.103-0.456c0.009-0.185,0.035-0.388,0.092-0.607l2.295-9.393
		H158.178L158.178,61.216z"/>
	<path style="fill:#747476;" d="M161.101,60.648l-0.154,0.62l1.473,0.129c0.232,0.013,0.394,0.055,0.501,0.128
		c0.104,0.073,0.155,0.194,0.155,0.361c0.004,0.168-0.039,0.4-0.116,0.697l-2.168,8.076c-0.129,0.495-0.176,0.93-0.133,1.308
		c0.042,0.379,0.181,0.675,0.422,0.894c0.241,0.216,0.593,0.323,1.053,0.327c0.464-0.004,0.903-0.107,1.312-0.305
		c0.414-0.198,0.796-0.474,1.145-0.818c0.352-0.344,0.674-0.739,0.963-1.186c0.287-0.443,0.541-0.912,0.76-1.407l-0.618-0.361
		c-0.095,0.185-0.211,0.395-0.354,0.631c-0.137,0.237-0.291,0.478-0.455,0.723c-0.168,0.241-0.339,0.468-0.516,0.68
		c-0.181,0.207-0.353,0.375-0.525,0.502c-0.168,0.129-0.325,0.194-0.473,0.198c-0.171,0-0.288-0.065-0.348-0.184
		c-0.06-0.121-0.082-0.289-0.06-0.498c0.021-0.212,0.069-0.457,0.15-0.736l2.813-10.373l-0.128-0.129L161.101,60.648L161.101,60.648
		z M165.671,54.43c-0.371,0.004-0.681,0.091-0.93,0.257c-0.248,0.168-0.435,0.379-0.559,0.636c-0.124,0.258-0.189,0.529-0.189,0.809
		c0.004,0.318,0.068,0.585,0.198,0.799c0.126,0.211,0.296,0.374,0.512,0.482c0.21,0.107,0.446,0.163,0.709,0.163
		c0.335-0.004,0.627-0.077,0.877-0.219c0.246-0.141,0.436-0.344,0.568-0.603c0.137-0.258,0.207-0.563,0.207-0.907
		c-0.005-0.336-0.069-0.607-0.201-0.818c-0.129-0.206-0.297-0.361-0.508-0.46C166.143,54.476,165.915,54.43,165.671,54.43
		L165.671,54.43z"/>
	<path style="fill:#747476;" d="M178.865,68.983c-0.232,0.309-0.494,0.631-0.781,0.972c-0.293,0.339-0.616,0.659-0.968,0.955
		c-0.354,0.298-0.741,0.537-1.157,0.727c-0.417,0.185-0.869,0.283-1.352,0.287c-0.597-0.004-1.066-0.163-1.409-0.478
		c-0.345-0.308-0.589-0.735-0.731-1.272c-0.143-0.538-0.212-1.149-0.207-1.837c0-0.063,0-0.124,0.005-0.189
		c0-0.06,0.009-0.138,0.022-0.225c1.079-0.219,2.016-0.446,2.816-0.683c0.799-0.237,1.484-0.482,2.057-0.731
		c0.571-0.245,1.058-0.499,1.453-0.757c0.395-0.255,0.731-0.512,1.002-0.771c0.296-0.3,0.524-0.598,0.683-0.881
		c0.154-0.289,0.262-0.568,0.319-0.834c0.059-0.267,0.085-0.52,0.081-0.761c0-0.465-0.119-0.89-0.361-1.278
		c-0.236-0.388-0.593-0.702-1.065-0.938c-0.479-0.235-1.068-0.36-1.774-0.365c-0.774,0.004-1.501,0.129-2.18,0.374
		c-0.681,0.241-1.313,0.585-1.893,1.023c-0.575,0.44-1.105,0.955-1.578,1.544c-0.457,0.565-0.843,1.178-1.161,1.841
		c-0.318,0.667-0.563,1.36-0.727,2.082c-0.167,0.718-0.253,1.44-0.253,2.167c0.004,0.718,0.09,1.329,0.259,1.828
		c0.163,0.499,0.388,0.908,0.666,1.222c0.277,0.318,0.584,0.563,0.92,0.735c0.336,0.168,0.681,0.288,1.024,0.353
		c0.348,0.065,0.671,0.099,0.976,0.095c0.473,0.004,0.964-0.056,1.471-0.172c0.507-0.12,1.019-0.318,1.531-0.597
		c0.516-0.279,1.02-0.659,1.511-1.136c0.489-0.477,0.958-1.071,1.397-1.784L178.865,68.983L178.865,68.983z M172.338,67.048
		c0.09-0.628,0.232-1.243,0.429-1.845c0.201-0.603,0.442-1.166,0.726-1.696c0.286-0.524,0.604-0.988,0.956-1.389
		c0.348-0.404,0.722-0.718,1.114-0.942c0.397-0.228,0.801-0.344,1.214-0.348c0.455,0.004,0.821,0.146,1.087,0.421
		c0.268,0.275,0.405,0.642,0.409,1.101c0.004,0.456-0.098,0.907-0.313,1.363c-0.21,0.457-0.551,0.894-1.02,1.313
		c-0.463,0.421-1.074,0.804-1.836,1.148C174.345,66.523,173.425,66.811,172.338,67.048L172.338,67.048z"/>
	<path style="fill:#747476;" d="M188.963,59.926c-0.657,0.004-1.247,0.103-1.762,0.296c-0.517,0.199-0.956,0.469-1.313,0.818
		c-0.361,0.344-0.636,0.749-0.821,1.204c-0.189,0.455-0.285,0.951-0.285,1.476c0.004,0.447,0.1,0.877,0.292,1.29
		c0.19,0.418,0.456,0.818,0.792,1.204c0.339,0.383,0.735,0.757,1.187,1.117c0.37,0.298,0.688,0.612,0.954,0.952
		c0.268,0.335,0.471,0.679,0.612,1.032c0.143,0.352,0.215,0.696,0.215,1.036c-0.005,0.404-0.081,0.752-0.241,1.041
		c-0.16,0.288-0.374,0.507-0.654,0.662c-0.278,0.155-0.598,0.233-0.964,0.233c-0.322,0-0.631-0.086-0.933-0.259
		c-0.3-0.172-0.576-0.418-0.815-0.739c-0.242-0.323-0.431-0.715-0.574-1.17c-0.073-0.245-0.176-0.439-0.305-0.572
		c-0.128-0.132-0.305-0.202-0.52-0.202c-0.258,0.005-0.49,0.074-0.692,0.207c-0.203,0.133-0.357,0.306-0.473,0.515
		c-0.116,0.212-0.173,0.436-0.177,0.672c0,0.279,0.086,0.564,0.262,0.852c0.172,0.283,0.422,0.551,0.753,0.79
		c0.331,0.242,0.739,0.435,1.217,0.581c0.479,0.146,1.025,0.224,1.638,0.228c0.698-0.004,1.326-0.107,1.876-0.309
		c0.551-0.207,1.015-0.486,1.402-0.847c0.387-0.358,0.68-0.771,0.882-1.239c0.202-0.469,0.306-0.968,0.306-1.502
		c0.004-0.467-0.074-0.916-0.234-1.337c-0.154-0.425-0.408-0.847-0.756-1.273c-0.349-0.422-0.812-0.868-1.386-1.337
		c-0.511-0.421-0.899-0.8-1.159-1.14c-0.268-0.336-0.449-0.646-0.543-0.925c-0.091-0.275-0.133-0.537-0.129-0.774
		c0-0.28,0.069-0.55,0.202-0.804c0.135-0.254,0.32-0.461,0.56-0.625c0.241-0.159,0.519-0.245,0.837-0.249
		c0.426-0.004,0.809,0.141,1.15,0.434c0.339,0.292,0.645,0.74,0.915,1.346c0.065,0.154,0.15,0.279,0.267,0.374
		c0.113,0.091,0.267,0.138,0.456,0.143c0.176,0,0.361-0.044,0.551-0.129c0.189-0.091,0.349-0.22,0.482-0.396
		c0.133-0.176,0.202-0.395,0.206-0.662c0-0.206-0.06-0.421-0.189-0.654c-0.124-0.227-0.322-0.447-0.589-0.653
		c-0.262-0.207-0.602-0.374-1.018-0.503C190.03,59.999,189.535,59.93,188.963,59.926L188.963,59.926z"/>
	<path style="fill-rule:evenodd;clip-rule:evenodd;fill:#BB3C4E;" d="M79.992,36.31c1.153,0,2.2-0.277,2.2-2.09
		c0-3.245-1.047-11.051-11.107-11.051c-8.576,0-12.643,6.102-12.643,14.348c0,8.688,3.739,14.018,12.699,13.92
		c6.102-0.068,9.236-3.419,10.72-7.763l-1.65-0.879c-1.539,3.189-3.627,5.828-7.97,5.828c-6.816,0-8.194-6.599-8.083-12.314H79.992
		L79.992,36.31z M64.215,34.22c0-2.254,0.824-9.127,6.54-9.127c5.114,0,5.719,5.223,5.719,7.367c0,1.044-0.33,1.76-1.868,1.76
		H64.215L64.215,34.22z"/>
	<path style="fill-rule:evenodd;clip-rule:evenodd;fill:#BB3C4E;" d="M203.233,30.48c0-3.188-0.714-7.311-9.014-7.311
		c-6.213,0-11.106,3.244-11.106,6.267c0,1.76,2.032,2.584,3.079,2.584c1.153,0,1.484-0.604,1.759-1.54
		c1.208-4.067,3.464-5.387,5.661-5.387c2.146,0,4.674,1.1,4.674,5.498V32.9c-1.375,1.43-6.709,2.804-11.053,4.179
		c-3.956,1.209-5.111,3.957-5.111,6.542c0,4.123,2.75,7.817,7.916,7.817c3.41-0.111,6.432-2.154,8.19-3.308
		c0.771,2.032,1.651,3.308,3.575,3.308c2.034,0,4.398-0.608,6.488-1.66l-0.33-1.319c-0.77,0.165-1.979,0.275-2.804,0.055
		c-0.99-0.219-1.926-1.264-1.926-4.727V30.48L203.233,30.48z M198.287,42.906c0,4.453-3.409,5.607-5.554,5.607
		c-3.408,0-5.058-2.418-5.058-5.662c0-2.585,1.211-3.904,4.289-5.058c2.199-0.824,5.112-1.868,6.322-2.638V42.906L198.287,42.906z"
		/>
</g>
</svg>
