<?xml version="1.0" encoding="utf-8"?>
<!-- Generator: Adobe Illustrator 21.0.0, SVG Export Plug-In . SVG Version: 6.00 Build 0)  -->
<svg version="1.1" id="Layer_1" xmlns="http://www.w3.org/2000/svg" xmlns:xlink="http://www.w3.org/1999/xlink" x="0px" y="0px"
	 viewBox="0 0 169 307.2" style="enable-background:new 0 0 169 307.2;" xml:space="preserve">
<style type="text/css">
	.st0{opacity:0;fill:#FFFFFF;}
	.st1{opacity:0.9;}
	.st2{opacity:0.6;fill:#991B1E;}
	.st3{fill:#991B1E;}
	.st4{opacity:0;}
	.st5{opacity:0.2;fill:#E6E7E7;}
</style>
<g>
	<rect x="-125.5" y="-56.4" class="st0" width="420" height="420"/>
	<g>
		<g class="st1">
			<polygon class="st2" points="163.6,187.1 128.7,201.6 128.7,297.5 163.6,283.2 			"/>
			<polygon class="st2" points="98.3,214.2 70.5,193.6 135.6,166.5 163.6,187.1 			"/>
			<polygon class="st3" points="33.3,241.4 5.4,220.8 70.4,193.4 98.3,214 			"/>
			<polygon class="st2" points="163.6,91 135.6,70.3 135.6,166.5 163.6,187.1 			"/>
			<polygon class="st3" points="33.3,145.4 5.4,124.7 5.4,220.8 33.3,241.4 			"/>
			<polygon class="st2" points="80.2,221.7 45.9,236.2 128.7,297.5 163.6,283.2 			"/>
			<polygon class="st3" points="33.3,145.4 5.4,124.7 135.6,70.3 163.6,91 			"/>
			<polygon class="st3" points="53.9,9.8 19.4,24.2 129,105.4 163.6,91 			"/>
			<polygon class="st3" points="53.9,9.8 19.2,24.1 19.2,119 53.9,104.5 			"/>
		</g>
	</g>
</g>
<g class="st4">
	<rect x="-58" y="303.6" class="st5" width="60" height="60"/>
	<rect x="167" y="303.6" class="st5" width="60" height="60"/>
	<rect x="-58" y="-56.4" class="st5" width="60" height="60"/>
	<rect x="167" y="-56.4" class="st5" width="60" height="60"/>
</g>
</svg>
